<?xml version="1.0" standalone="no"?><!DOCTYPE svg PUBLIC "-//W3C//DTD SVG 1.1//EN" "http://www.w3.org/Graphics/SVG/1.1/DTD/svg11.dtd"><svg t="1586314952850" class="icon" viewBox="0 0 1029 1024" version="1.1" xmlns="http://www.w3.org/2000/svg" p-id="11381" xmlns:xlink="http://www.w3.org/1999/xlink" width="32.15625" height="32"><defs><style type="text/css"></style></defs><path d="M1008.48 496.48c-8.544 0-15.52 6.976-15.52 15.52 0 265.216-215.744 480.96-480.96 480.96-265.248 0-480.96-215.744-480.96-480.96 0-265.216 215.744-480.992 480.96-480.992 8.544 0 15.52-6.944 15.52-15.488C527.52 6.912 520.544 0 512 0c-282.336 0-512 229.664-512 512s229.696 512 512 512c282.304 0 512-229.76 512-512C1023.968 503.424 1017.024 496.48 1008.48 496.48zM513.408 337.984c6.208-5.92 6.4-15.712 0.48-21.952-5.952-6.144-15.744-6.368-21.952-0.48l-180.768 173.248c-0.032 0.032-0.064 0.096-0.096 0.128-0.032 0.032-0.096 0.064-0.128 0.096-0.64 0.64-0.928 1.44-1.44 2.176-0.672 0.928-1.44 1.824-1.888 2.848-0.288 0.736-0.288 1.536-0.48 2.304-0.288 1.184-0.672 2.304-0.672 3.52 0 0.832 0.288 1.6 0.416 2.4 0.16 1.152 0.224 2.336 0.672 3.424 0.32 0.8 0.96 1.44 1.376 2.208 0.608 0.96 0.992 2.016 1.824 2.848 0.032 0.032 0.096 0.064 0.16 0.096 0.032 0.032 0.032 0.064 0.064 0.096l175.552 175.552c3.04 3.072 7.008 4.576 10.976 4.576 3.968 0 7.936-1.504 10.944-4.576 6.048-6.048 6.048-15.872 0-21.888l-146.784-146.848 363.68 0c8.576 0 15.52-6.944 15.52-15.488 0-8.576-6.976-15.52-15.52-15.52L358.176 486.752 513.408 337.984z" p-id="11382"></path></svg>