<?xml version="1.0" standalone="no"?><!DOCTYPE svg PUBLIC "-//W3C//DTD SVG 1.1//EN" "http://www.w3.org/Graphics/SVG/1.1/DTD/svg11.dtd"><svg t="1586331073568" class="icon" viewBox="0 0 1024 1024" version="1.1" xmlns="http://www.w3.org/2000/svg" p-id="14683" xmlns:xlink="http://www.w3.org/1999/xlink" width="32" height="32"><defs><style type="text/css"></style></defs><path d="M197.6 899.84h-0.04c-9.93-0.02-17.97-8.08-17.96-18.01v-0.03l1-496.64c0.02-9.93 8.08-17.96 18-17.96h0.04c9.93 0.02 17.97 8.08 17.96 18.01v0.03l-1 496.64c-0.02 9.93-8.08 17.96-18 17.96zM523.25 902.66h-63.19c-9.94 0-18-8.06-18-18s8.06-18 18-18h63.19c9.94 0 18 8.06 18 18s-8.06 18-18 18zM829.66 902.66H575.75c-9.94 0-18-8.06-18-18s8.06-18 18-18h235.91V386.08c0-9.94 8.06-18 18-18s18 8.06 18 18v498.57c0 9.95-8.06 18.01-18 18.01z" fill="#353535" p-id="14684"></path><path d="M311.38 901.05h-111.3c-9.94 0-18-8.06-18-18s8.06-18 18-18h111.3c9.94 0 18 8.06 18 18s-8.06 18-18 18zM509.86 518.3c-130.12 0-205.43-55.61-208.58-57.98-7.94-5.98-9.53-17.27-3.55-25.21 5.97-7.93 17.24-9.52 25.17-3.57 0.49 0.36 17.76 12.99 49.07 25.43 29.07 11.55 76.59 25.33 137.88 25.33 118.79 0 196.82-50.84 197.59-51.35 8.28-5.49 19.45-3.23 24.95 5.05s3.23 19.45-5.05 24.95c-3.51 2.34-87.94 57.35-217.48 57.35z" fill="#353535" p-id="14685"></path><path d="M928.23 459.69c-3.67 0-7.37-1.12-10.56-3.44L512 161.59 106.33 456.25c-8.04 5.84-19.3 4.06-25.14-3.99-5.84-8.04-4.06-19.3 3.99-25.14l416.25-302.34a18.011 18.011 0 0 1 21.16 0l416.25 302.34c8.04 5.84 9.83 17.1 3.99 25.14a18.04 18.04 0 0 1-14.6 7.43z" fill="#353535" p-id="14686"></path></svg>