<?xml version="1.0" standalone="no"?><!DOCTYPE svg PUBLIC "-//W3C//DTD SVG 1.1//EN" "http://www.w3.org/Graphics/SVG/1.1/DTD/svg11.dtd"><svg t="1586325609689" class="icon" viewBox="0 0 1024 1024" version="1.1" xmlns="http://www.w3.org/2000/svg" p-id="12917" xmlns:xlink="http://www.w3.org/1999/xlink" width="32" height="32"><defs><style type="text/css"></style></defs><path d="M512 72C269.4 72 72 269.4 72 512s197.4 440 440 440 440-197.4 440-440S754.6 72 512 72z" fill="#FFEB3B" p-id="12918"></path><path d="M983.8 312.7C958 251.7 921 197 874 150c-47-47-101.7-84-162.7-109.7C648.2 13.5 581.1 0 512 0S375.8 13.5 312.7 40.3C251.7 66 197 103 150 150c-47 47-84 101.7-109.7 162.7C13.5 375.8 0 442.9 0 512s13.5 136.2 40.3 199.3C66 772.3 103 827 150 874c47 47 101.8 83.9 162.7 109.7 63.1 26.7 130.2 40.3 199.3 40.3s136.2-13.5 199.3-40.3C772.3 958 827 921 874 874c47-47 83.9-101.8 109.7-162.7 26.7-63.1 40.3-130.2 40.3-199.3s-13.5-136.2-40.2-199.3zM512 952C269.4 952 72 754.6 72 512S269.4 72 512 72s440 197.4 440 440-197.4 440-440 440z" fill="#F9CE1D" p-id="12919"></path><path d="M376.5 503.8l204.8-103c-17.4-16.7-29.2-39.2-32.4-64.3L344.2 439.4c17.4 16.8 29.1 39.2 32.3 64.4zM581.2 633.3L376.5 531c-3.1 25.2-14.8 47.6-32.1 64.4l204.5 102.2c3.2-25.1 14.9-47.5 32.3-64.3z" fill="#F9CE1D" p-id="12920"></path><path d="M656.7 213.8c-60 0-108.7 48.7-108.7 108.7 0 4.8 0.3 9.4 0.9 14 3.2 25.1 15.1 47.6 32.4 64.3 19.5 18.8 46.1 30.4 75.3 30.4 60 0 108.7-48.7 108.7-108.7 0.1-60-48.6-108.7-108.6-108.7z" fill="#FF5722" p-id="12921"></path><path d="M376.5 503.8c-3.2-25.1-14.9-47.6-32.3-64.4-19.6-18.9-46.2-30.6-75.6-30.6-60 0-108.7 48.7-108.7 108.7s48.7 108.7 108.7 108.7c29.4 0 56.1-11.7 75.7-30.7 17.3-16.8 29-39.3 32.1-64.4 0.5-4.4 0.8-8.9 0.8-13.5 0.2-4.8-0.1-9.3-0.7-13.8zM656.7 602.8c-29.3 0-55.9 11.6-75.5 30.5-17.3 16.7-29.1 39.2-32.3 64.3-0.6 4.5-0.9 9.1-0.9 13.8 0 60 48.7 108.7 108.7 108.7s108.7-48.7 108.7-108.7c0-59.9-48.7-108.6-108.7-108.6z" fill="#FF9800" p-id="12922"></path></svg>