<?xml version="1.0" standalone="no"?>
<!DOCTYPE svg PUBLIC "-//W3C//DTD SVG 20010904//EN"
 "http://www.w3.org/TR/2001/REC-SVG-20010904/DTD/svg10.dtd">
<svg version="1.0" xmlns="http://www.w3.org/2000/svg"
 width="128.000000pt" height="128.000000pt" viewBox="0 0 128.000000 128.000000"
 preserveAspectRatio="xMidYMid meet">
<metadata>
Created by potrace 1.11, written by Peter Selinger 2001-2013
</metadata>
<g transform="translate(0.000000,128.000000) scale(0.100000,-0.100000)"
fill="#000000" stroke="none">
<path d="M639 1265 c-15 -8 -30 -22 -33 -32 -9 -23 -16 -105 -19 -230 -1 -55
-4 -100 -8 -98 -3 2 -16 50 -29 107 -29 123 -58 163 -112 154 -19 -3 -43 -17
-56 -32 -21 -24 -22 -33 -17 -94 3 -37 7 -76 9 -86 2 -10 7 -53 11 -94 4 -41
8 -82 10 -90 10 -53 15 -150 8 -150 -4 0 -22 13 -38 29 -43 39 -75 55 -110 52
-39 -2 -95 -41 -95 -65 0 -29 121 -203 177 -257 26 -25 65 -56 85 -70 21 -13
38 -31 39 -39 5 -52 2 -68 -13 -92 -10 -14 -20 -52 -23 -84 -9 -103 -39 -94
331 -94 l324 0 1 23 c3 65 -4 115 -20 142 -29 50 -30 70 -6 202 29 159 32 179
40 278 4 44 9 89 11 100 2 11 7 61 10 111 6 90 5 92 -22 113 -14 11 -33 21
-40 21 -25 0 -64 -23 -69 -42 -14 -41 -23 -14 -19 52 4 60 2 75 -16 100 -17
24 -29 30 -60 30 -54 0 -90 -42 -90 -106 0 -13 -3 -24 -8 -24 -4 0 -8 40 -10
90 -4 108 -6 122 -27 153 -24 38 -71 47 -116 22z"/>
</g>
</svg>
